<svg class="st27" color-interpolation-filters="sRGB" height="5.96316in" viewbox="0 0 945.093 429.348" width="13.1263in" xml:space="preserve" xmlns="http://www.w3.org/2000/svg" xmlns:ev="http://www.w3.org/2001/xml-events" xmlns:v="http://schemas.microsoft.com/visio/2003/SVGExtensions/" xmlns:xlink="http://www.w3.org/1999/xlink">
<style type="text/css">
	
		.st1 {fill:none;stroke:none;stroke-linecap:round;stroke-linejoin:round;stroke-width:0.72}
		.st2 {fill:#000000;font-family:Arial;font-size:0.833336em}
		.st3 {fill:#000000;stroke:none;stroke-linecap:butt;stroke-width:4.25}
		.st4 {fill:#0071b9;stroke:none;stroke-linecap:round;stroke-linejoin:round;stroke-width:0.24}
		.st5 {fill:#ffffff;font-family:Arial;font-size:0.916672em}
		.st6 {fill:#ffffff;stroke:#000000;stroke-linecap:round;stroke-linejoin:round;stroke-width:1}
		.st7 {fill:#000000;font-family:Arial;font-size:0.916672em}
		.st8 {marker-end:url(#mrkr4-36);marker-start:url(#mrkr4-34);stroke:#000000;stroke-linecap:round;stroke-linejoin:round;stroke-width:3}
		.st9 {fill:#000000;fill-opacity:1;stroke:#000000;stroke-opacity:1;stroke-width:0.54347826086957}
		.st10 {fill:#ffffff;stroke:#000000;stroke-width:1}
		.st11 {font-size:1em}
		.st12 {fill:#4ba3d3;stroke:none;stroke-linecap:round;stroke-linejoin:round;stroke-width:0.24}
		.st13 {fill:#ffffff;font-family:Arial;font-size:0.833336em}
		.st14 {baseline-shift:32.4947%;font-size:0.649894em}
		.st15 {marker-start:url(#mrkr4-86);stroke:#000000;stroke-width:1}
		.st16 {fill:#000000;fill-opacity:1;stroke:#000000;stroke-opacity:1;stroke-width:0.28409090909091}
		.st17 {fill:#000000;stroke:none;stroke-linecap:round;stroke-linejoin:round;stroke-width:6.375}
		.st18 {marker-start:url(#mrkr5-114);stroke:#000000;stroke-linecap:round;stroke-linejoin:round;stroke-width:1}
		.st19 {fill:none}
		.st20 {stroke:#000000;stroke-linecap:butt;stroke-width:1}
		.st21 {marker-end:url(#mrkr4-186);stroke:#000000;stroke-width:1}
		.st22 {fill:#000000;stroke:none;stroke-linecap:round;stroke-linejoin:round;stroke-width:0.75}
		.st23 {fill:#000000;stroke:#ffffff;stroke-linecap:round;stroke-linejoin:round;stroke-width:1}
		.st24 {fill:#000000;stroke:#ffffff;stroke-linecap:round;stroke-linejoin:round;stroke-width:1;visibility:hidden}
		.st25 {fill:#000000;stroke:#ffffff;stroke-linecap:round;stroke-linejoin:round;stroke-width:1.5}
		.st26 {fill:#000000;stroke:#000000;stroke-linecap:round;stroke-linejoin:round;stroke-width:1}
		.st27 {fill:none;fill-rule:evenodd;font-size:12px;overflow:visible;stroke-linecap:square;stroke-miterlimit:3}
	
	</style>
<defs id="Markers">
<g id="lend4">
<path d="M 2 1 L 0 0 L 2 -1 L 2 1 " style="stroke:none"></path>
</g>
<marker class="st9" id="mrkr4-34" markerunits="strokeWidth" orient="auto" overflow="visible" refx="3.56" v:arrowsize="2" v:arrowtype="4" v:setback="3.56">
<use transform="scale(1.84) " xlink:href="#lend4"></use>
</marker>
<marker class="st9" id="mrkr4-36" markerunits="strokeWidth" orient="auto" overflow="visible" refx="-3.68" v:arrowsize="2" v:arrowtype="4" v:setback="3.68">
<use transform="scale(-1.84,-1.84) " xlink:href="#lend4"></use>
</marker>
<marker class="st16" id="mrkr4-86" markerunits="strokeWidth" orient="auto" overflow="visible" refx="6.68" v:arrowsize="2" v:arrowtype="4" v:setback="6.68">
<use transform="scale(3.52) " xlink:href="#lend4"></use>
</marker>
<g id="lend5">
<path d="M 2 1 L 0 0 L 1.98117 -0.993387 C 1.67173 -0.364515 1.67301 0.372641 1.98465 1.00043 " style="stroke:none"></path>
</g>
<marker class="st16" id="mrkr5-114" markerunits="strokeWidth" orient="auto" overflow="visible" refx="5.8" v:arrowsize="2" v:arrowtype="5" v:setback="5.8">
<use transform="scale(3.52) " xlink:href="#lend5"></use>
</marker>
<marker class="st16" id="mrkr4-186" markerunits="strokeWidth" orient="auto" overflow="visible" refx="-7.04" v:arrowsize="2" v:arrowtype="4" v:setback="7.04">
<use transform="scale(-3.52,-3.52) " xlink:href="#lend4"></use>
</marker>
</defs>
<g v:groupcontext="foregroundPage" v:index="1" v:mid="19">
<title>AS235</title>
<g id="shape107-1" transform="translate(866.45,-22.1742)" v:groupcontext="shape" v:mid="107">
<title>WC#</title>
<desc>AS235</desc>
<rect class="st1" height="20.0036" width="48.2996" x="0" y="409.344"></rect>
<text class="st2" v:langid="1033" x="9.14" y="422.35">AS235</text> </g>
<g id="group110-4" transform="translate(36.8659,-360.534)" v:groupcontext="group" v:mid="110">
<title>Sheet.110</title>
<g id="group111-5" transform="translate(20.5313,-20.0036)" v:groupcontext="group" v:mid="111">
<title>Battery.328</title>
<g id="shape112-6" transform="translate(20.044,-19.3853)" v:groupcontext="shape" v:mid="112">
<title>Sheet.112</title>
<path class="st3" d="M0.85 429.35 L5.08 429.35 C5.55 429.35 5.93 429.01 5.93 428.59 L5.93 427.14 C5.93 426.31 5.17 425.63          4.23 425.63 L1.7 425.63 C0.76 425.63 0 426.31 0 427.14 L0 428.6 C0 429.01 0.38 429.35 0.85 429.35          Z"></path>
</g>
<g id="shape113-8" transform="translate(4.96598,-19.3853)" v:groupcontext="shape" v:mid="113">
<title>Sheet.113</title>
<path class="st3" d="M0.85 429.35 L5.08 429.35 C5.55 429.35 5.93 429.01 5.93 428.59 L5.93 427.14 C5.93 426.31 5.17 425.63          4.23 425.63 L1.7 425.63 C0.76 425.63 0 426.31 0 427.14 L0 428.6 C0 429.01 0.38 429.35 0.85 429.35          Z"></path>
</g>
<g id="shape114-10" transform="translate(0,-16.0396)" v:groupcontext="shape" v:mid="114">
<title>Sheet.114</title>
<path class="st3" d="M29.46 426.71 L1.48 426.71 C0.66 426.71 0 427.3 0 428.03 C0 428.76 0.66 429.35 1.48 429.35 L29.46 429.35          C30.27 429.35 30.94 428.76 30.94 428.03 C30.94 427.31 30.27 426.71 29.46 426.71 Z"></path>
</g>
<g id="shape115-12" transform="translate(0.957192,-1.13687E-13)" v:groupcontext="shape" v:mid="115">
<title>Sheet.115</title>
<path class="st3" d="M26.92 414.18 L2.11 414.18 C0.94 414.18 0 415.02 0 416.06 L0 426.36 C0 428.01 1.51 429.35 3.36 429.35          L25.66 429.35 C27.52 429.35 29.02 428.01 29.02 426.36 L29.02 416.06 C29.02 415.02 28.08 414.18 26.92          414.18 Z"></path>
</g>
</g>
<g id="shape116-14" v:groupcontext="shape" v:mid="116">
<title>Label Text 10pt.262</title>
<desc>12V Battery</desc>
<rect class="st1" height="20.0036" width="72" x="0" y="409.344"></rect>
<text class="st2" v:langid="1033" x="9.87" y="422.35">12V Battery</text> </g>
</g>
<g id="shape119-17" transform="translate(38.75,-278.424)" v:groupcontext="shape" v:layermember="3" v:mid="119">
<title>Dynamic connector</title>
</g>
<a data-link-id="#light-sensor" xlink:href="#light-sensor">
<g id="shape126-18" transform="translate(406.346,-215.058)" v:groupcontext="shape" v:mid="126">
<title>Light Sensor</title>
<desc>Light Sensor</desc>
<rect class="st4" height="33.75" width="101.25" x="0" y="395.598"></rect>
<text class="st5" v:langid="1033" x="19.74" y="415.77">Light Sensor</text> </g>
</a>
<a data-link-id="#timing" xlink:href="#timing">
<g id="shape127-21" transform="translate(559.242,-60.5342)" v:groupcontext="shape" v:mid="127">
<title>Timing</title>
<desc>Timing</desc>
<rect class="st4" height="33.75" width="177.623" x="0" y="395.598"></rect>
<text class="st5" v:langid="1033" x="72.31" y="415.77">Timing</text> </g>
</a>
<g id="shape129-24" transform="translate(559.242,-316.784)" v:groupcontext="shape" v:mid="129">
<title>PMIC</title>
<desc>PMIC</desc>
<rect class="st6" height="33.75" width="177.623" x="0" y="395.598"></rect>
<text class="st7" v:langid="1033" x="75.06" y="415.77">PMIC</text> </g>
<g id="group132-27" transform="translate(778.737,-180)" v:groupcontext="group" v:mid="132">
<title>Sheet.132</title>
<g id="shape133-28" transform="translate(456.948,355.364) rotate(90)" v:groupcontext="shape" v:mid="133">
<title>Double arrow.2150</title>
<path class="st8" d="M10.68 429.35 L11.04 429.35 L34.33 429.35"></path>
</g>
<g id="shape134-37" transform="translate(136.013,837.692) rotate(180)" v:groupcontext="shape" v:mid="134">
<title>Double arrow.2166</title>
<path class="st8" d="M10.68 429.35 L11.04 429.35 L89.1 429.35"></path>
</g>
<g id="shape135-44" transform="translate(6.39488E-14,-36)" v:groupcontext="shape" v:mid="135">
<title>Label Text 10pt.2367</title>
<desc>720</desc>
<rect class="st1" height="27" width="28.4448" x="0" y="402.348"></rect>
<text class="st2" v:langid="1033" x="5.88" y="418.85">720</text> </g>
<g id="shape136-47" transform="translate(43.6224,-1)" v:groupcontext="shape" v:mid="136">
<title>Label Text 10pt.2368</title>
<desc>1920</desc>
<rect class="st1" height="20.0036" width="83.0331" x="0" y="409.344"></rect>
<text class="st2" v:langid="1033" x="30.39" y="422.35">1920</text> </g>
<g id="shape137-50" transform="translate(35.5974,-29.414)" v:groupcontext="shape" v:mid="137">
<title>Cluster application &amp; Sourround View</title>
<desc>Cluster application &amp; (Surround View)</desc>
<rect class="st10" height="43.586" width="100.405" x="0" y="385.762"></rect>
<text class="st2" v:langid="1033" x="4.35" y="403.45">Cluster application &amp;<tspan class="st11" dy="1.39em" x="14.08">(Surround View)</tspan></text> </g>
</g>
<a data-link-id="#soc-r-car-m3" xlink:href="#soc-r-car-m3">
<g id="shape138-54" transform="translate(559.242,-133.264)" v:groupcontext="shape" v:mid="138">
<title>SoC R-Car M3</title>
<desc>SoC R-Car M3</desc>
<rect class="st4" height="163.52" width="177.623" x="0" y="265.827"></rect>
<text class="st5" v:langid="1033" x="52.75" y="283.73">SoC R-Car M3</text> </g>
</a>
<g id="shape140-57" transform="translate(563.452,-220.784)" v:groupcontext="shape" v:mid="140">
<title>I2C</title>
<desc>I2C</desc>
<rect class="st12" height="22.648" width="69.6674" x="0" y="406.7"></rect>
<text class="st13" v:langid="1033" x="28.03" y="421.02">I<tspan class="st14" dy="-0.235em" v:basefontsize="10">2</tspan><tspan class="st11" dy="0.153em">C</tspan></text> </g>
<g id="shape142-62" transform="translate(659.185,-220.784)" v:groupcontext="shape" v:mid="142">
<title>LVDS</title>
<desc>LVDS</desc>
<rect class="st12" height="22.648" width="72.815" x="0" y="406.7"></rect>
<text class="st13" v:langid="1033" x="23.35" y="421.02">LVDS</text> </g>
<g id="shape143-65" transform="translate(563.452,-156.784)" v:groupcontext="shape" v:mid="143">
<title>MIPI CSI</title>
<desc>MIPI CSI</desc>
<rect class="st12" height="22.648" width="69.6674" x="0" y="406.7"></rect>
<text class="st13" v:langid="1033" x="14.83" y="421.02">MIPI CSI</text> </g>
<g id="shape166-68" transform="translate(406.346,-255.299)" v:groupcontext="shape" v:mid="166">
<title>Flash + DDR</title>
<desc>Flash + DDR</desc>
<rect class="st10" height="33.75" width="101.25" x="0" y="395.598"></rect>
<text class="st7" v:langid="1033" x="18.99" y="415.77">Flash + DDR</text> </g>
<g id="group191-71" transform="translate(56.7427,-115.284)" v:groupcontext="group" v:mid="191">
<title>Quad component</title>
<g id="shape192-72" transform="translate(35.2369,8.52651E-13)" v:groupcontext="shape" v:mid="192">
<title>Component block.751</title>
<rect class="st6" height="113.096" width="205.263" x="0" y="316.252"></rect>
</g>
<g id="shape193-74" transform="translate(23.4913,-16.8082)" v:groupcontext="shape" v:mid="193">
<title>Component block.747</title>
<rect class="st6" height="113.096" width="205.263" x="0" y="316.252"></rect>
</g>
<g id="shape194-76" transform="translate(11.7456,-33.6165)" v:groupcontext="shape" v:mid="194">
<title>Component block.748</title>
<rect class="st6" height="113.096" width="205.263" x="0" y="316.252"></rect>
</g>
<g id="shape195-78" transform="translate(0,-50.4247)" v:groupcontext="shape" v:mid="195">
<title>Component block.749</title>
<desc>11pt text</desc>
<rect class="st6" height="113.096" width="205.263" x="0" y="316.252"></rect>
<text class="st5" v:langid="1033" x="81.53" y="376.1">11pt text</text> </g>
</g>
<g id="shape196-81" transform="translate(559.242,691.167) rotate(180)" v:groupcontext="shape" v:mid="196">
<title>Right arrow 1pt.1711</title>
<path class="st15" d="M6.68 429.35 L7.04 429.35 L51.65 429.35"></path>
</g>
<g id="group197-87" transform="translate(151.099,-157.673)" v:groupcontext="group" v:mid="197">
<title>Sheet.197</title>
</g>
<g id="group198-88" transform="translate(71.4038,-175.435)" v:groupcontext="group" v:mid="198">
<title>Camera.325</title>
<g id="shape199-89" v:groupcontext="shape" v:mid="199">
<title>Sheet.199</title>
<path class="st17" d="M25.61 410.13 C26.36 410.13 26.96 410.75 26.96 411.5 L26.96 427.98 C26.96 428.73 26.36 429.35 25.61 429.35         L1.35 429.35 C0.61 429.35 0 428.73 0 427.98 L0 411.5 C0 410.75 0.61 410.13 1.35 410.13 L8.09 410.13         L10.11 406.7 L16.85 406.7 L18.87 410.13 L25.61 410.13 ZM6.74 415.62 L6.74 412.88 L2.7 412.88 L2.7 415.62         L6.74 415.62 ZM13.48 426.6 C16.85 426.6 19.55 423.86 19.55 420.43 C19.55 416.99 16.85 414.25 13.48 414.25         C10.11 414.25 7.41 416.99 7.41 420.43 C7.41 423.86 10.11 426.6 13.48 426.6 Z"></path>
</g>
<g id="shape200-91" transform="translate(8.76263,-4.11782)" v:groupcontext="shape" v:mid="200">
<title>Sheet.200</title>
<path class="st17" d="M4.72 429.35 C7.35 429.35 9.44 427.22 9.44 424.54 C9.44 421.87 7.35 419.74 4.72 419.74 C2.09 419.74 0 421.87         0 424.54 C0 427.22 2.09 429.35 4.72 429.35 ZM4.72 421.11 C6.61 421.11 8.09 422.62 8.09 424.54 C8.09         426.47 6.61 427.98 4.72 427.98 C2.83 427.98 1.35 426.47 1.35 424.54 C1.35 422.62 2.83 421.11 4.72 421.11         Z"></path>
</g>
</g>
<a data-link-id="#camera-pmic" xlink:href="#camera-pmic">
<g id="shape201-93" transform="translate(118.366,-241.027)" v:groupcontext="shape" v:mid="201">
<title>Camera PMIC</title>
<desc>Camera PMIC</desc>
<rect class="st4" height="33.75" width="101.25" x="0" y="395.598"></rect>
<text class="st5" v:langid="1033" x="15.79" y="415.77">Camera PMIC</text> </g>
</a>
<a data-link-id="#ahl" xlink:href="#ahl">
<g id="shape202-96" transform="translate(118.366,-169.884)" v:groupcontext="shape" v:mid="202">
<title>AHL</title>
<desc>AHL</desc>
<rect class="st4" height="33.75" width="101.25" x="0" y="395.598"></rect>
<text class="st5" v:langid="1033" x="39.93" y="415.77">AHL</text> </g>
</a>
<g id="shape203-99" transform="translate(-260.357,225.714) rotate(-90)" v:groupcontext="shape" v:mid="203">
<title>Down arrow.38</title>
<path class="st15" d="M6.68 429.35 L7.04 429.35 L37.39 429.35"></path>
</g>
<g id="shape205-104" transform="translate(514.354,201.116) rotate(90)" v:groupcontext="shape" v:mid="205">
<title>Right arrow bracket.32</title>
<path class="st15" d="M23.47 429.35 L23.11 429.35 L0 429.35 L0 345.36"></path>
</g>
<g id="shape206-109" transform="translate(118.366,671.937) rotate(180)" v:groupcontext="shape" v:mid="206">
<title>Right arrow</title>
<path class="st18" d="M5.8 429.35 L6.16 429.35 L20 429.35"></path>
</g>
<a data-link-id="#ahl-4-channel" xlink:href="#ahl-4-channel">
<g id="shape208-115" transform="translate(406.346,-125.344)" v:groupcontext="shape" v:mid="208">
<title>AHL 4-Channel</title>
<desc>AHL 4-Channel</desc>
<rect class="st4" height="84.3688" width="101.25" x="0" y="344.979"></rect>
<text class="st5" v:langid="1033" x="13.02" y="390.46">AHL 4-Channel</text> </g>
</a>
<g id="group209-118" transform="translate(219.821,-176.759)" v:groupcontext="group" v:mid="209">
<title>wireless-connectivity.209</title>
<g id="shape210-119" transform="translate(93.6153,-0.0657534)" v:groupcontext="shape" v:mid="210">
<title>Sheet.210</title>
<path class="st19" d="M93.62 419.43 C93.62 419.43 86.53 429.35 77.99 419.4 C69.48 409.45 62.37 419.38 62.37 419.38 C62.37 419.38         55.28 429.3 46.77 419.36 C38.25 409.41 31.18 419.42 31.18 419.42 C31.18 419.42 24.12 429.35 15.58 419.4         C7.07 409.45 0 419.36 0 419.36 L93.62 419.43 Z"></path>
<path class="st20" d="M93.62 419.43 C93.62 419.43 86.53 429.35 77.99 419.4 C69.48 409.45 62.37 419.38 62.37 419.38 C62.37 419.38         55.28 429.3 46.77 419.36 C38.25 409.41 31.18 419.42 31.18 419.42 C31.18 419.42 24.12 429.35 15.58 419.4         C7.07 409.45 0 419.36 0 419.36"></path>
</g>
<g id="shape211-122" transform="translate(93.6153,-0.0657534)" v:groupcontext="shape" v:mid="211">
<title>Sheet.211</title>
<path class="st19" d="M0 419.43 C0 419.43 7.09 429.35 15.62 419.4 C24.14 409.45 31.25 419.38 31.25 419.38 C31.25 419.38 38.33         429.3 46.85 419.36 C55.36 409.41 62.43 419.42 62.43 419.42 C62.43 419.42 69.5 429.35 78.03 419.4 C86.55         409.45 93.62 419.36 93.62 419.36 L0 419.43 Z"></path>
<path class="st20" d="M0 419.43 C0 419.43 7.09 429.35 15.62 419.4 C24.14 409.45 31.25 419.38 31.25 419.38 C31.25 419.38 38.33         429.3 46.85 419.36 C55.36 409.41 62.43 419.42 62.43 419.42 C62.43 419.42 69.5 429.35 78.03 419.4 C86.55         409.45 93.62 419.36 93.62 419.36"></path>
</g>
<g id="shape212-125" v:groupcontext="shape" v:mid="212">
<title>Sheet.212</title>
<path class="st19" d="M93.62 419.43 C93.62 419.43 86.53 429.35 77.99 419.4 C69.48 409.45 62.37 419.38 62.37 419.38 C62.37 419.38         55.28 429.3 46.77 419.36 C38.25 409.41 31.18 419.42 31.18 419.42 C31.18 419.42 24.12 429.35 15.58 419.4         C7.07 409.45 0 419.36 0 419.36 L93.62 419.43 Z"></path>
<path class="st20" d="M93.62 419.43 C93.62 419.43 86.53 429.35 77.99 419.4 C69.48 409.45 62.37 419.38 62.37 419.38 C62.37 419.38         55.28 429.3 46.77 419.36 C38.25 409.41 31.18 419.42 31.18 419.42 C31.18 419.42 24.12 429.35 15.58 419.4         C7.07 409.45 0 419.36 0 419.36"></path>
</g>
<g id="shape213-128" v:groupcontext="shape" v:mid="213">
<title>Sheet.213</title>
<path class="st19" d="M0 419.43 C0 419.43 7.09 429.35 15.62 419.4 C24.14 409.45 31.25 419.38 31.25 419.38 C31.25 419.38 38.33         429.3 46.85 419.36 C55.36 409.41 62.43 419.42 62.43 419.42 C62.43 419.42 69.5 429.35 78.03 419.4 C86.55         409.45 93.62 419.36 93.62 419.36 L0 419.43 Z"></path>
<path class="st20" d="M0 419.43 C0 419.43 7.09 429.35 15.62 419.4 C24.14 409.45 31.25 419.38 31.25 419.38 C31.25 419.38 38.33         429.3 46.85 419.36 C55.36 409.41 62.43 419.42 62.43 419.42 C62.43 419.42 69.5 429.35 78.03 419.4 C86.55         409.45 93.62 419.36 93.62 419.36"></path>
</g>
</g>
<g id="group214-131" transform="translate(263.445,-163.663)" v:groupcontext="group" v:mid="214">
<title>wireless-connectivity.214</title>
<g id="shape215-132" transform="translate(71.8037,-0.0657534)" v:groupcontext="shape" v:mid="215">
<title>Sheet.215</title>
<path class="st19" d="M71.8 419.43 C71.8 419.43 66.37 429.35 59.82 419.4 C53.29 409.45 47.84 419.38 47.84 419.38 C47.84 419.38         42.4 429.3 35.87 419.36 C29.34 409.41 23.92 419.42 23.92 419.42 C23.92 419.42 18.5 429.35 11.95 419.4         C5.42 409.45 0 419.36 0 419.36 L71.8 419.43 Z"></path>
<path class="st20" d="M71.8 419.43 C71.8 419.43 66.37 429.35 59.82 419.4 C53.29 409.45 47.84 419.38 47.84 419.38 C47.84 419.38         42.4 429.3 35.87 419.36 C29.34 409.41 23.92 419.42 23.92 419.42 C23.92 419.42 18.5 429.35 11.95 419.4         C5.42 409.45 0 419.36 0 419.36"></path>
</g>
<g id="shape216-135" transform="translate(71.8037,-0.0657534)" v:groupcontext="shape" v:mid="216">
<title>Sheet.216</title>
<path class="st19" d="M0 419.43 C0 419.43 5.44 429.35 11.98 419.4 C18.51 409.45 23.97 419.38 23.97 419.38 C23.97 419.38 29.4 429.3         35.93 419.36 C42.46 409.41 47.88 419.42 47.88 419.42 C47.88 419.42 53.3 429.35 59.85 419.4 C66.38 409.45         71.8 419.36 71.8 419.36 L0 419.43 Z"></path>
<path class="st20" d="M0 419.43 C0 419.43 5.44 429.35 11.98 419.4 C18.51 409.45 23.97 419.38 23.97 419.38 C23.97 419.38 29.4 429.3         35.93 419.36 C42.46 409.41 47.88 419.42 47.88 419.42 C47.88 419.42 53.3 429.35 59.85 419.4 C66.38 409.45         71.8 419.36 71.8 419.36"></path>
</g>
<g id="shape217-138" v:groupcontext="shape" v:mid="217">
<title>Sheet.217</title>
<path class="st19" d="M71.8 419.43 C71.8 419.43 66.37 429.35 59.82 419.4 C53.29 409.45 47.84 419.38 47.84 419.38 C47.84 419.38         42.4 429.3 35.87 419.36 C29.34 409.41 23.92 419.42 23.92 419.42 C23.92 419.42 18.5 429.35 11.95 419.4         C5.42 409.45 0 419.36 0 419.36 L71.8 419.43 Z"></path>
<path class="st20" d="M71.8 419.43 C71.8 419.43 66.37 429.35 59.82 419.4 C53.29 409.45 47.84 419.38 47.84 419.38 C47.84 419.38         42.4 429.3 35.87 419.36 C29.34 409.41 23.92 419.42 23.92 419.42 C23.92 419.42 18.5 429.35 11.95 419.4         C5.42 409.45 0 419.36 0 419.36"></path>
</g>
<g id="shape218-141" v:groupcontext="shape" v:mid="218">
<title>Sheet.218</title>
<path class="st19" d="M0 419.43 C0 419.43 5.44 429.35 11.98 419.4 C18.51 409.45 23.97 419.38 23.97 419.38 C23.97 419.38 29.4 429.3         35.93 419.36 C42.46 409.41 47.88 419.42 47.88 419.42 C47.88 419.42 53.3 429.35 59.85 419.4 C66.38 409.45         71.8 419.36 71.8 419.36 L0 419.43 Z"></path>
<path class="st20" d="M0 419.43 C0 419.43 5.44 429.35 11.98 419.4 C18.51 409.45 23.97 419.38 23.97 419.38 C23.97 419.38 29.4 429.3         35.93 419.36 C42.46 409.41 47.88 419.42 47.88 419.42 C47.88 419.42 53.3 429.35 59.85 419.4 C66.38 409.45         71.8 419.36 71.8 419.36"></path>
</g>
</g>
<g id="group219-144" transform="translate(276.681,-150.567)" v:groupcontext="group" v:mid="219">
<title>wireless-connectivity.219</title>
<g id="shape220-145" transform="translate(65.2523,-0.0657534)" v:groupcontext="shape" v:mid="220">
<title>Sheet.220</title>
<path class="st19" d="M65.25 419.43 C65.25 419.43 60.31 429.35 54.36 419.4 C48.43 409.45 43.47 419.38 43.47 419.38 C43.47 419.38         38.53 429.3 32.6 419.36 C26.66 409.41 21.74 419.42 21.74 419.42 C21.74 419.42 16.81 429.35 10.86 419.4         C4.93 409.45 0 419.36 0 419.36 L65.25 419.43 Z"></path>
<path class="st20" d="M65.25 419.43 C65.25 419.43 60.31 429.35 54.36 419.4 C48.43 409.45 43.47 419.38 43.47 419.38 C43.47 419.38         38.53 429.3 32.6 419.36 C26.66 409.41 21.74 419.42 21.74 419.42 C21.74 419.42 16.81 429.35 10.86 419.4         C4.93 409.45 0 419.36 0 419.36"></path>
</g>
<g id="shape221-148" transform="translate(65.2523,-0.0657534)" v:groupcontext="shape" v:mid="221">
<title>Sheet.221</title>
<path class="st19" d="M0 419.43 C0 419.43 4.94 429.35 10.89 419.4 C16.83 409.45 21.78 419.38 21.78 419.38 C21.78 419.38 26.72         429.3 32.65 419.36 C38.59 409.41 43.52 419.42 43.52 419.42 C43.52 419.42 48.44 429.35 54.39 419.4 C60.33         409.45 65.25 419.36 65.25 419.36 L0 419.43 Z"></path>
<path class="st20" d="M0 419.43 C0 419.43 4.94 429.35 10.89 419.4 C16.83 409.45 21.78 419.38 21.78 419.38 C21.78 419.38 26.72         429.3 32.65 419.36 C38.59 409.41 43.52 419.42 43.52 419.42 C43.52 419.42 48.44 429.35 54.39 419.4 C60.33         409.45 65.25 419.36 65.25 419.36"></path>
</g>
<g id="shape222-151" v:groupcontext="shape" v:mid="222">
<title>Sheet.222</title>
<path class="st19" d="M65.25 419.43 C65.25 419.43 60.31 429.35 54.36 419.4 C48.43 409.45 43.47 419.38 43.47 419.38 C43.47 419.38         38.53 429.3 32.6 419.36 C26.66 409.41 21.74 419.42 21.74 419.42 C21.74 419.42 16.81 429.35 10.86 419.4         C4.93 409.45 0 419.36 0 419.36 L65.25 419.43 Z"></path>
<path class="st20" d="M65.25 419.43 C65.25 419.43 60.31 429.35 54.36 419.4 C48.43 409.45 43.47 419.38 43.47 419.38 C43.47 419.38         38.53 429.3 32.6 419.36 C26.66 409.41 21.74 419.42 21.74 419.42 C21.74 419.42 16.81 429.35 10.86 419.4         C4.93 409.45 0 419.36 0 419.36"></path>
</g>
<g id="shape223-154" v:groupcontext="shape" v:mid="223">
<title>Sheet.223</title>
<path class="st19" d="M0 419.43 C0 419.43 4.94 429.35 10.89 419.4 C16.83 409.45 21.78 419.38 21.78 419.38 C21.78 419.38 26.72         429.3 32.65 419.36 C38.59 409.41 43.52 419.42 43.52 419.42 C43.52 419.42 48.44 429.35 54.39 419.4 C60.33         409.45 65.25 419.36 65.25 419.36 L0 419.43 Z"></path>
<path class="st20" d="M0 419.43 C0 419.43 4.94 429.35 10.89 419.4 C16.83 409.45 21.78 419.38 21.78 419.38 C21.78 419.38 26.72         429.3 32.65 419.36 C38.59 409.41 43.52 419.42 43.52 419.42 C43.52 419.42 48.44 429.35 54.39 419.4 C60.33         409.45 65.25 419.36 65.25 419.36"></path>
</g>
</g>
<g id="group224-157" transform="translate(287.85,-137.472)" v:groupcontext="group" v:mid="224">
<title>wireless-connectivity.224</title>
<g id="shape225-158" transform="translate(59.6681,-0.0657534)" v:groupcontext="shape" v:mid="225">
<title>Sheet.225</title>
<path class="st19" d="M59.67 419.43 C59.67 419.43 55.15 429.35 49.71 419.4 C44.28 409.45 39.75 419.38 39.75 419.38 C39.75 419.38         35.24 429.3 29.81 419.36 C24.38 409.41 19.88 419.42 19.88 419.42 C19.88 419.42 15.37 429.35 9.93 419.4         C4.5 409.45 0 419.36 0 419.36 L59.67 419.43 Z"></path>
<path class="st20" d="M59.67 419.43 C59.67 419.43 55.15 429.35 49.71 419.4 C44.28 409.45 39.75 419.38 39.75 419.38 C39.75 419.38         35.24 429.3 29.81 419.36 C24.38 409.41 19.88 419.42 19.88 419.42 C19.88 419.42 15.37 429.35 9.93 419.4         C4.5 409.45 0 419.36 0 419.36"></path>
</g>
<g id="shape226-161" transform="translate(59.6681,-0.0657534)" v:groupcontext="shape" v:mid="226">
<title>Sheet.226</title>
<path class="st19" d="M0 419.43 C0 419.43 4.52 429.35 9.96 419.4 C15.39 409.45 19.92 419.38 19.92 419.38 C19.92 419.38 24.43 429.3         29.86 419.36 C35.29 409.41 39.79 419.42 39.79 419.42 C39.79 419.42 44.3 429.35 49.74 419.4 C55.16 409.45         59.67 419.36 59.67 419.36 L0 419.43 Z"></path>
<path class="st20" d="M0 419.43 C0 419.43 4.52 429.35 9.96 419.4 C15.39 409.45 19.92 419.38 19.92 419.38 C19.92 419.38 24.43 429.3         29.86 419.36 C35.29 409.41 39.79 419.42 39.79 419.42 C39.79 419.42 44.3 429.35 49.74 419.4 C55.16 409.45         59.67 419.36 59.67 419.36"></path>
</g>
<g id="shape227-164" v:groupcontext="shape" v:mid="227">
<title>Sheet.227</title>
<path class="st19" d="M59.67 419.43 C59.67 419.43 55.15 429.35 49.71 419.4 C44.28 409.45 39.75 419.38 39.75 419.38 C39.75 419.38         35.24 429.3 29.81 419.36 C24.38 409.41 19.88 419.42 19.88 419.42 C19.88 419.42 15.37 429.35 9.93 419.4         C4.5 409.45 0 419.36 0 419.36 L59.67 419.43 Z"></path>
<path class="st20" d="M59.67 419.43 C59.67 419.43 55.15 429.35 49.71 419.4 C44.28 409.45 39.75 419.38 39.75 419.38 C39.75 419.38         35.24 429.3 29.81 419.36 C24.38 409.41 19.88 419.42 19.88 419.42 C19.88 419.42 15.37 429.35 9.93 419.4         C4.5 409.45 0 419.36 0 419.36"></path>
</g>
<g id="shape228-167" v:groupcontext="shape" v:mid="228">
<title>Sheet.228</title>
<path class="st19" d="M0 419.43 C0 419.43 4.52 429.35 9.96 419.4 C15.39 409.45 19.92 419.38 19.92 419.38 C19.92 419.38 24.43 429.3         29.86 419.36 C35.29 409.41 39.79 419.42 39.79 419.42 C39.79 419.42 44.3 429.35 49.74 419.4 C55.16 409.45         59.67 419.36 59.67 419.36 L0 419.43 Z"></path>
<path class="st20" d="M0 419.43 C0 419.43 4.52 429.35 9.96 419.4 C15.39 409.45 19.92 419.38 19.92 419.38 C19.92 419.38 24.43 429.3         29.86 419.36 C35.29 409.41 39.79 419.42 39.79 419.42 C39.79 419.42 44.3 429.35 49.74 419.4 C55.16 409.45         59.67 419.36 59.67 419.36"></path>
</g>
</g>
<g id="shape229-170" transform="translate(56.7427,-278.805)" v:groupcontext="shape" v:mid="229">
<title>Label Text 10pt.2392</title>
<desc>Cameras</desc>
<rect class="st1" height="20.0036" width="72" x="0" y="409.344"></rect>
<text class="st2" v:langid="1033" x="15.72" y="422.35">Cameras</text> </g>
<g id="shape230-173" transform="translate(659.935,-156.784)" v:groupcontext="shape" v:mid="230">
<title>CR7</title>
<desc>CR7</desc>
<rect class="st12" height="22.648" width="72.815" x="0" y="406.7"></rect>
<text class="st13" v:langid="1033" x="26.41" y="421.02">CR7</text> </g>
<g id="shape231-176" transform="translate(559.242,626.762) rotate(180)" v:groupcontext="shape" v:mid="231">
<title>Right arrow 1pt.231</title>
<path class="st15" d="M6.68 429.35 L7.04 429.35 L51.65 429.35"></path>
</g>
<g id="shape232-181" transform="translate(736.866,-218.434)" v:groupcontext="shape" v:layermember="3" v:mid="232">
<title>Connector Arrow.232</title>
<path class="st21" d="M0 416.85 L33.46 416.85"></path>
</g>
<g id="shape236-187" transform="translate(166.32,-391.58)" v:groupcontext="shape" v:mid="236">
<title>Connector 1</title>
<ellipse class="st22" cx="2.77275" cy="426.575" rx="2.77275" ry="2.77275"></ellipse>
</g>
<g id="shape238-189" transform="translate(87.3774,-393.829)" v:groupcontext="shape" v:mid="238">
<title>Sheet.238</title>
<path class="st21" d="M0 429.35 L311.93 429.35"></path>
</g>
<g id="shape239-194" transform="translate(-260.357,150.543) rotate(-90)" v:groupcontext="shape" v:mid="239">
<title>Sheet.239</title>
<path class="st15" d="M6.68 429.35 L7.04 429.35 L115.02 429.35"></path>
</g>
<g id="shape242-199" transform="translate(635.554,-319.284)" v:groupcontext="shape" v:layermember="3" v:mid="242">
<title>Connector Arrow.242</title>
<path class="st21" d="M12.5 431.85 L12.5 444.81"></path>
</g>
<g id="shape243-204" transform="translate(635.554,-94.2842)" v:groupcontext="shape" v:layermember="3" v:mid="243">
<title>Connector Arrow.243</title>
<path class="st21" d="M12.5 429.35 L12.5 397.41"></path>
</g>
<g id="shape245-209" transform="translate(507.596,-394.353)" v:groupcontext="shape" v:layermember="3" v:mid="245">
<title>Connector Line</title>
<path class="st21" d="M0 429.35 L140.46 429.35 L140.46 466.13"></path>
</g>
<g id="shape276-214" transform="translate(334.75,-235.076)" v:groupcontext="shape" v:mid="276">
<title>Label Text 10pt.262.276</title>
<desc>Brightness</desc>
<rect class="st1" height="20.0036" width="65.1486" x="0" y="409.344"></rect>
<text class="st2" v:langid="1033" x="8.95" y="422.35">Brightness</text> </g>
<g id="shape277-217" transform="translate(507.596,-260.418)" v:groupcontext="shape" v:layermember="3" v:mid="277">
<title>Connector Arrow.277</title>
<path class="st21" d="M0 417.59 L0 416.1 L44.61 416.1"></path>
</g>
<g id="group288-222" transform="translate(376.558,-215.174)" v:groupcontext="group" v:mid="288">
<title>Sun.288</title>
<g id="shape289-223" v:groupcontext="shape" v:mid="289">
<title>Sheet.289</title>
<path class="st23" d="M1.91 409 A11.5422 7.80114 -1.5 0 0 7.09 412.31 A38.042 7.50786 -82.77 0 0 6.69 406.49 A8.9278 7.88218 -162.8         0 0 9.56 410.93 a5.25792 0.568298 -74.97 0 0 1.91189 -4.92663 A5.06208 1.24886 -97.65 0 0 13.38 410.85         A25.4716 21.0344 -88.46 0 0 16.81 406.9 L16.25 412.31 A12.1409 9.22678 -171.79 0 0 20.55 409.88 A11.3106         3.35395 -74 0 0 17.76 414.24 a4.42019 0.832074 -5.14 0 0 5.17802 0.403823 A20.3685 6.87594 -11.62 0         0 18.64 417.15 A7.00353 3.55023 -0.4 0 0 23.34 419.49 a5.72123 0.828282 -7.16 0 0 -5.57633 1.53453 A15.3368         8.58263 -159.18 0 0 21.03 424.91 A8.92338 1.12355 9.99 0 1 16.25 423.37 A76.1798 61.6077 -52.69 0 0         16.25 428.78 A10.5987 4.81633 -152.61 0 0 12.83 424.42 A4.99863 1.06613 -86.68 0 0 11.47 429.35 a5.49443         0.6384 -102.41 0 0 -1.91189 -5.41122 A6.00483 2.13187 -26.79 0 0 5.74 427.81 A26.7305 9.48067 -98.31         0 0 6.69 422.97 a2.70377 0.113954 -16.92 1 0 -4.77971 1.45376 A14.8371 8.51207 -25.17 0 0 4.78 420.12         A7.24797 1.52198 -8.3 0 0 0 419.58 a4.95932 0.480146 -22.95 0 0 4.38141 -2.42294 A10.1968 8.34754 -6         0 0 0 414.24 A11.8663 5.07819 -177.4 0 0 5.18 414.24 A18.0898 7.66538 -142.76 0 0 1.91 409 Z"></path>
</g>
<g id="shape290-225" transform="translate(4.77971,-5.41122)" v:groupcontext="shape" v:mid="290">
<title>Sheet.290</title>
<path class="st23" d="M0 423.05 A6.6916 6.29963 0 0 1 13.38 423.05 A6.6916 6.29963 0 1 1 0 423.05 Z"></path>
</g>
<g id="shape291-227" transform="translate(0,5.83524)" v:groupcontext="shape" v:mid="291">
<title>Sheet.291</title>
<rect class="st24" height="5.83524" width="23.3409" x="0" y="423.513"></rect>
</g>
</g>
<g id="group292-229" transform="translate(347.404,-217.105)" v:groupcontext="group" v:mid="292">
<title>Cloudy Day.292</title>
<g id="shape293-230" transform="translate(7.75123,0)" v:groupcontext="shape" v:mid="293">
<title>Sheet.293</title>
<path class="st23" d="M1.62 412.36 A9.76574 6.51049 -1.45 0 0 6 415.13 A31.755 6.351 -82.66 0 0 5.66 410.27 A7.54559 6.58524 -164.45         0 0 8.09 413.98 a4.39211 0.480387 -74.77 0 0 1.61765 -4.11152 A4.2256 1.0564 -97.77 0 0 11.32 413.91         A21.2575 17.797 -88.34 0 0 14.22 410.61 L13.75 415.13 A10.2697 7.70226 -172.18 0 0 17.39 413.1 A9.44923         2.83477 -73.75 0 0 15.03 416.74 a3.73952 0.694483 -5.06 0 0 4.38113 0.33701 A17.2244 5.74146 -11.42         0 0 15.77 419.17 A5.92568 2.96284 -0.39 0 0 19.75 421.12 a4.83971 0.691388 -7.06 0 0 -4.71814 1.28064         A12.9545 7.1748 -159.67 0 0 17.79 425.64 a7.54699 0.938044 9.85 0 1 -4.04412 -1.28064 A63.9114 51.8526         -50.84 0 0 13.75 428.88 A8.94196 4.03098 -153.1 0 0 10.85 425.24 a4.1718 0.902011 -86.63 0 0 -1.14583         4.11152 a4.58833 0.539803 -102.58 0 0 -1.61765 -4.51593 A5.06672 1.78406 -26.38 0 0 4.85 428.07 A22.3144         8.01925 -98.46 0 0 5.66 424.02 a2.28503 0.0952095 -16.7 1 0 -4.04412 1.21324 A12.5232 7.12104 -24.58         0 0 4.04 421.65 A6.13077 1.27052 -8.18 0 0 -0 421.19 a4.18742 0.401534 -22.66 0 0 3.70711 -2.02206 A8.62632         6.96741 -5.61 0 0 -0 416.74 A10.0398 4.23812 -177.45 0 0 4.38 416.74 A15.2299 6.42902 -143.3 0 0 1.62         412.36 Z"></path>
</g>
<g id="shape294-232" transform="translate(11.7953,-4.51593)" v:groupcontext="shape" v:mid="294">
<title>Sheet.294</title>
<path class="st23" d="M0 424.09 A5.66176 5.25735 0 1 1 11.32 424.09 A5.66176 5.25735 0 0 1 0 424.09 Z"></path>
</g>
<g id="shape295-234" transform="translate(1.3789E-13,-0.067402)" v:groupcontext="shape" v:mid="295">
<title>Sheet.295</title>
<path class="st25" d="M1.45 429.35 A2.88518 2.88518 0 0 1 3.84 424.12 A3.20219 3.20219 0 0 1 7.01 419.82 A4.15229 4.15229 0 0         1 14.96 419.02 A3.53602 3.53602 0 0 1 19.33 422.53 A2.16697 2.16697 0 0 1 22.5 425.05 A3.32877 3.32877         0 0 1 26.87 429.35 L1.45 429.35 Z"></path>
</g>
</g>
<g id="shape296-236" transform="translate(345.75,622.901) rotate(180)" v:groupcontext="shape" v:mid="296">
<title>Moon.296</title>
<path class="st26" d="M9.69 429.35 A10.6056 9.79294 0 0 1 9.69 411.45 A9.69231 8.9496 -180 1 0 9.69 429.35 Z"></path>
</g>
<g id="group297-238" transform="translate(18.75,-22.1742)" v:groupcontext="group" v:mid="297">
<title>Sheet.297</title>
<g id="shape246-239" transform="translate(24.759,0)" v:groupcontext="shape" v:mid="246">
<title>Label Text 10pt.262</title>
<desc>Lux: Low (0~100 lux) = PWM 40% Lux: Normal (1000~2500 lux) = ...</desc>
<rect class="st1" height="72.0038" width="229.241" x="0" y="357.344"></rect>
<text class="st2" v:langid="1033" x="4" y="370.34">Lux: Low (0~100 lux) = PWM 40%<tspan class="st11" dy="2.6em" x="4">Lux: Normal (1000~2500 lux) = PWM 80%</tspan><tspan class="st11" dy="2.6em" x="4">Lux: Too Bright (20000~50000 lux) = PWM 100%</tspan></text> </g>
<g id="group279-244" transform="translate(2.07953,-1.66099)" v:groupcontext="group" v:mid="279">
<title>Sun.342</title>
<g id="shape280-245" v:groupcontext="shape" v:mid="280">
<title>Sheet.280</title>
<path class="st23" d="M1.91 409 A11.5422 7.80114 -1.5 0 0 7.09 412.31 A38.042 7.50786 -82.77 0 0 6.69 406.49 A8.9278 7.88218          -162.8 0 0 9.56 410.93 a5.25792 0.568298 -74.97 0 0 1.91189 -4.92663 A5.06208 1.24886 -97.65 0 0          13.38 410.85 A25.4716 21.0344 -88.46 0 0 16.81 406.9 L16.25 412.31 A12.1409 9.22678 -171.79 0 0          20.55 409.88 A11.3106 3.35395 -74 0 0 17.76 414.24 a4.42019 0.832074 -5.14 0 0 5.17802 0.403823          A20.3685 6.87594 -11.62 0 0 18.64 417.15 A7.00353 3.55023 -0.4 0 0 23.34 419.49 a5.72123 0.828282          -7.16 0 0 -5.57633 1.53453 A15.3368 8.58263 -159.18 0 0 21.03 424.91 A8.92338 1.12355 9.99 0 1 16.25          423.37 A76.1798 61.6077 -52.69 0 0 16.25 428.78 A10.5987 4.81633 -152.61 0 0 12.83 424.42 A4.99863          1.06613 -86.68 0 0 11.47 429.35 a5.49443 0.6384 -102.41 0 0 -1.91189 -5.41122 A6.00483 2.13187 -26.79          0 0 5.74 427.81 A26.7305 9.48067 -98.31 0 0 6.69 422.97 a2.70377 0.113954 -16.92 1 0 -4.77971 1.45376          A14.8371 8.51207 -25.17 0 0 4.78 420.12 A7.24797 1.52198 -8.3 0 0 0 419.58 a4.95932 0.480146 -22.95          0 0 4.38141 -2.42294 A10.1968 8.34754 -6 0 0 0 414.24 A11.8663 5.07819 -177.4 0 0 5.18 414.24 A18.0898          7.66538 -142.76 0 0 1.91 409 Z"></path>
</g>
<g id="shape281-247" transform="translate(4.77971,-5.41122)" v:groupcontext="shape" v:mid="281">
<title>Sheet.281</title>
<path class="st23" d="M0 423.05 A6.6916 6.29963 0 0 1 13.38 423.05 A6.6916 6.29963 0 1 1 0 423.05 Z"></path>
</g>
<g id="shape282-249" transform="translate(0,5.83524)" v:groupcontext="shape" v:mid="282">
<title>Sheet.282</title>
<rect class="st24" height="5.83524" width="23.3409" x="0" y="423.513"></rect>
</g>
</g>
<g id="group283-251" transform="translate(-1.59872E-14,-29.5228)" v:groupcontext="group" v:mid="283">
<title>Cloudy Day</title>
<g id="shape284-252" transform="translate(7.75123,0)" v:groupcontext="shape" v:mid="284">
<title>Sheet.284</title>
<path class="st23" d="M1.62 412.36 A9.76574 6.51049 -1.45 0 0 6 415.13 A31.755 6.351 -82.66 0 0 5.66 410.27 A7.54559 6.58524          -164.45 0 0 8.09 413.98 a4.39211 0.480387 -74.77 0 0 1.61765 -4.11152 A4.2256 1.0564 -97.77 0 0          11.32 413.91 A21.2575 17.797 -88.34 0 0 14.22 410.61 L13.75 415.13 A10.2697 7.70226 -172.18 0 0          17.39 413.1 A9.44923 2.83477 -73.75 0 0 15.03 416.74 a3.73952 0.694483 -5.06 0 0 4.38113 0.33701          A17.2244 5.74146 -11.42 0 0 15.77 419.17 A5.92568 2.96284 -0.39 0 0 19.75 421.12 a4.83971 0.691388          -7.06 0 0 -4.71814 1.28064 A12.9545 7.1748 -159.67 0 0 17.79 425.64 a7.54699 0.938044 9.85 0 1 -4.04412          -1.28064 A63.9114 51.8526 -50.84 0 0 13.75 428.88 A8.94196 4.03098 -153.1 0 0 10.85 425.24 a4.1718          0.902011 -86.63 0 0 -1.14583 4.11152 a4.58833 0.539803 -102.58 0 0 -1.61765 -4.51593 A5.06672 1.78406          -26.38 0 0 4.85 428.07 A22.3144 8.01925 -98.46 0 0 5.66 424.02 a2.28503 0.0952095 -16.7 1 0 -4.04412          1.21324 A12.5232 7.12104 -24.58 0 0 4.04 421.65 A6.13077 1.27052 -8.18 0 0 -0 421.19 a4.18742 0.401534          -22.66 0 0 3.70711 -2.02206 A8.62632 6.96741 -5.61 0 0 -0 416.74 A10.0398 4.23812 -177.45 0 0 4.38          416.74 A15.2299 6.42902 -143.3 0 0 1.62 412.36 Z"></path>
</g>
<g id="shape285-254" transform="translate(11.7953,-4.51593)" v:groupcontext="shape" v:mid="285">
<title>Sheet.285</title>
<path class="st23" d="M0 424.09 A5.66176 5.25735 0 1 1 11.32 424.09 A5.66176 5.25735 0 0 1 0 424.09 Z"></path>
</g>
<g id="shape286-256" transform="translate(1.3789E-13,-0.067402)" v:groupcontext="shape" v:mid="286">
<title>Sheet.286</title>
<path class="st25" d="M1.45 429.35 A2.88518 2.88518 0 0 1 3.84 424.12 A3.20219 3.20219 0 0 1 7.01 419.82 A4.15229 4.15229          0 0 1 14.96 419.02 A3.53602 3.53602 0 0 1 19.33 422.53 A2.16697 2.16697 0 0 1 22.5 425.05 A3.32877          3.32877 0 0 1 26.87 429.35 L1.45 429.35 Z"></path>
</g>
</g>
<g id="shape287-258" transform="translate(18.5962,787.274) rotate(180)" v:groupcontext="shape" v:mid="287">
<title>Moon.344</title>
<path class="st26" d="M9.69 429.35 A10.6056 9.79294 0 0 1 9.69 411.45 A9.69231 8.9496 -180 1 0 9.69 429.35 Z"></path>
</g>
</g>
<g id="shape298-260" transform="translate(406.346,-377.478)" v:groupcontext="shape" v:mid="298">
<title>Pre-regulator</title>
<desc>Pre-regulator</desc>
<rect class="st10" height="33.75" width="101.25" x="0" y="395.598"></rect>
<text class="st7" v:langid="1033" x="18.53" y="415.77">Pre-regulator</text> </g>
</g>
</svg>