<svg class="st24" color-interpolation-filters="sRGB" height="8.35124in" viewbox="0 0 1065.71 601.289" width="14.8015in" xml:space="preserve" xmlns="http://www.w3.org/2000/svg" xmlns:ev="http://www.w3.org/2001/xml-events" xmlns:v="http://schemas.microsoft.com/visio/2003/SVGExtensions/" xmlns:xlink="http://www.w3.org/1999/xlink">
<style type="text/css">
	
		.st1 {fill:none;stroke:none;stroke-linecap:round;stroke-linejoin:round;stroke-width:0.72}
		.st2 {fill:#000000;font-family:Arial;font-size:0.833336em}
		.st3 {marker-end:url(#mrkr4-9);stroke:#000000;stroke-width:1}
		.st4 {fill:#000000;fill-opacity:1;stroke:#000000;stroke-opacity:1;stroke-width:0.28409090909091}
		.st5 {fill:none}
		.st6 {stroke:#000000;stroke-width:1}
		.st7 {fill:#ffffff;stroke:#000000;stroke-width:1}
		.st8 {fill:#000000;font-family:Arial;font-size:0.916672em}
		.st9 {font-size:1em}
		.st10 {fill:none;stroke:#000000;stroke-dasharray:7,5;stroke-width:1}
		.st11 {fill:#000000;font-family:Arial;font-size:1.00001em}
		.st12 {fill:#000000;stroke:none;stroke-linecap:butt;stroke-width:4.25}
		.st13 {baseline-shift:-32.4947%;font-size:0.649894em}
		.st14 {marker-start:url(#mrkr4-79);stroke:#000000;stroke-width:1}
		.st15 {fill:#0071b9;stroke:none;stroke-linecap:round;stroke-linejoin:round;stroke-width:0.24}
		.st16 {fill:#ffffff;font-family:Arial;font-size:0.916672em}
		.st17 {marker-end:url(#mrkr4-9);marker-start:url(#mrkr4-79);stroke:#000000;stroke-width:1}
		.st18 {fill:#f2f2f2;stroke:#000000;stroke-linecap:round;stroke-linejoin:round;stroke-width:0.75}
		.st19 {fill:#000000;stroke:none;stroke-linecap:round;stroke-linejoin:round;stroke-width:0.75}
		.st20 {marker-end:url(#mrkr4-188);marker-start:url(#mrkr4-186);stroke:#000000;stroke-linecap:round;stroke-linejoin:round;stroke-width:3}
		.st21 {fill:#000000;fill-opacity:1;stroke:#000000;stroke-opacity:1;stroke-width:0.54347826086957}
		.st22 {fill:#4ba3d3;stroke:none;stroke-linecap:round;stroke-linejoin:round;stroke-width:0.24}
		.st23 {fill:#ffffff;font-family:Arial;font-size:0.833336em}
		.st24 {fill:none;fill-rule:evenodd;font-size:12px;overflow:visible;stroke-linecap:square;stroke-miterlimit:3}
	
	</style>
<defs id="Markers">
<g id="lend4">
<path d="M 2 1 L 0 0 L 2 -1 L 2 1 " style="stroke:none"></path>
</g>
<marker class="st4" id="mrkr4-9" markerunits="strokeWidth" orient="auto" overflow="visible" refx="-7.04" v:arrowsize="2" v:arrowtype="4" v:setback="7.04">
<use transform="scale(-3.52,-3.52) " xlink:href="#lend4"></use>
</marker>
<marker class="st4" id="mrkr4-79" markerunits="strokeWidth" orient="auto" overflow="visible" refx="6.68" v:arrowsize="2" v:arrowtype="4" v:setback="6.68">
<use transform="scale(3.52) " xlink:href="#lend4"></use>
</marker>
<marker class="st21" id="mrkr4-186" markerunits="strokeWidth" orient="auto" overflow="visible" refx="3.56" v:arrowsize="2" v:arrowtype="4" v:setback="3.56">
<use transform="scale(1.84) " xlink:href="#lend4"></use>
</marker>
<marker class="st21" id="mrkr4-188" markerunits="strokeWidth" orient="auto" overflow="visible" refx="-3.68" v:arrowsize="2" v:arrowtype="4" v:setback="3.68">
<use transform="scale(-1.84,-1.84) " xlink:href="#lend4"></use>
</marker>
</defs>
<g v:groupcontext="foregroundPage" v:index="1" v:mid="19">
<title>AS213</title>
<g id="shape146-1" transform="translate(913,-31.5395)" v:groupcontext="shape" v:mid="146">
<title>AS213 </title>
<desc>AS213</desc>
<rect class="st1" height="20.0036" width="48.2996" x="0" y="581.286"></rect>
<text class="st2" v:langid="1033" x="9.14" y="594.29">AS213</text> </g>
<g id="shape147-4" transform="translate(663.551,-249.722)" v:groupcontext="shape" v:mid="147">
<title>Sheet.147</title>
<path class="st3" d="M0 601.29 L66.88 601.29"></path>
</g>
<g id="shape148-10" transform="translate(128.634,-48.2895)" v:groupcontext="shape" v:mid="148">
<title>Sheet.148</title>
<path class="st3" d="M0 601.29 L601.25 601.29"></path>
</g>
<g id="shape149-15" transform="translate(283.504,245.222) rotate(-90)" v:groupcontext="shape" v:mid="149">
<title>Sheet.149</title>
<path class="st3" d="M0 601.29 L46.49 601.29"></path>
</g>
<g id="shape150-20" transform="translate(311.552,-266.289)" v:groupcontext="shape" v:mid="150">
<title>Sheet.150</title>
<path class="st3" d="M0 601.29 L49.91 601.29"></path>
</g>
<g id="shape151-25" transform="translate(312.058,-227.289)" v:groupcontext="shape" v:mid="151">
<title>Sheet.151</title>
<path class="st3" d="M0 601.29 L49.4 601.29"></path>
</g>
<g id="group152-30" transform="translate(381.157,-239.72)" v:groupcontext="group" v:mid="152">
<title>wireless-connectivity</title>
<g id="shape153-31" transform="translate(26.052,-0.0657654)" v:groupcontext="shape" v:mid="153">
<title>Sheet.153</title>
<path class="st5" d="M26.05 591.37 C26.05 591.37 24.08 601.29 21.7 591.34 C19.33 581.38 17.36 591.32 17.36 591.32 C17.36 591.32         15.38 601.25 13.01 591.3 C10.64 581.35 8.68 591.36 8.68 591.36 C8.68 591.36 6.71 601.29 4.34 591.34         C1.97 581.38 0 591.3 0 591.3 L26.05 591.37 Z"></path>
<path class="st6" d="M26.05 591.37 C26.05 591.37 24.08 601.29 21.7 591.34 C19.33 581.38 17.36 591.32 17.36 591.32 C17.36 591.32         15.38 601.25 13.01 591.3 C10.64 581.35 8.68 591.36 8.68 591.36 C8.68 591.36 6.71 601.29 4.34 591.34         C1.97 581.38 0 591.3 0 591.3"></path>
</g>
<g id="shape154-34" transform="translate(26.052,-0.0657654)" v:groupcontext="shape" v:mid="154">
<title>Sheet.154</title>
<path class="st5" d="M0 591.37 C0 591.37 1.97 601.29 4.35 591.34 C6.72 581.38 8.7 591.32 8.7 591.32 C8.7 591.32 10.67 601.25         13.04 591.3 C15.41 581.35 17.37 591.36 17.37 591.36 C17.37 591.36 19.34 601.29 21.72 591.34 C24.09 581.38         26.05 591.3 26.05 591.3 L0 591.37 Z"></path>
<path class="st6" d="M0 591.37 C0 591.37 1.97 601.29 4.35 591.34 C6.72 581.38 8.7 591.32 8.7 591.32 C8.7 591.32 10.67 601.25         13.04 591.3 C15.41 581.35 17.37 591.36 17.37 591.36 C17.37 591.36 19.34 601.29 21.72 591.34 C24.09 581.38         26.05 591.3 26.05 591.3"></path>
</g>
<g id="shape155-37" v:groupcontext="shape" v:mid="155">
<title>Sheet.155</title>
<path class="st5" d="M26.05 591.37 C26.05 591.37 24.08 601.29 21.7 591.34 C19.33 581.38 17.36 591.32 17.36 591.32 C17.36 591.32         15.38 601.25 13.01 591.3 C10.64 581.35 8.68 591.36 8.68 591.36 C8.68 591.36 6.71 601.29 4.34 591.34         C1.97 581.38 0 591.3 0 591.3 L26.05 591.37 Z"></path>
<path class="st6" d="M26.05 591.37 C26.05 591.37 24.08 601.29 21.7 591.34 C19.33 581.38 17.36 591.32 17.36 591.32 C17.36 591.32         15.38 601.25 13.01 591.3 C10.64 581.35 8.68 591.36 8.68 591.36 C8.68 591.36 6.71 601.29 4.34 591.34         C1.97 581.38 0 591.3 0 591.3"></path>
</g>
<g id="shape156-40" v:groupcontext="shape" v:mid="156">
<title>Sheet.156</title>
<path class="st5" d="M0 591.37 C0 591.37 1.97 601.29 4.35 591.34 C6.72 581.38 8.7 591.32 8.7 591.32 C8.7 591.32 10.67 601.25         13.04 591.3 C15.41 581.35 17.37 591.36 17.37 591.36 C17.37 591.36 19.34 601.29 21.72 591.34 C24.09 581.38         26.05 591.3 26.05 591.3 L0 591.37 Z"></path>
<path class="st6" d="M0 591.37 C0 591.37 1.97 601.29 4.35 591.34 C6.72 581.38 8.7 591.32 8.7 591.32 C8.7 591.32 10.67 601.25         13.04 591.3 C15.41 581.35 17.37 591.36 17.37 591.36 C17.37 591.36 19.34 601.29 21.72 591.34 C24.09 581.38         26.05 591.3 26.05 591.3"></path>
</g>
</g>
<g id="shape157-43" transform="translate(111.477,-225.816)" v:groupcontext="shape" v:mid="157">
<title>1.3MP Sensor + ISP</title>
<desc>1.3MP Sensor + ISP</desc>
<rect class="st7" height="47.8125" width="61.6401" x="0" y="553.477"></rect>
<text class="st8" v:langid="1033" x="14.92" y="567.48">1.3MP <tspan class="st9" dy="1.2em" x="13.39">Sensor</tspan><tspan class="st9" dy="1.2em" x="17.22">+ ISP</tspan></text> </g>
<g id="shape158-48" transform="translate(19,-131.767)" v:groupcontext="shape" v:mid="158">
<title>AHL Camera Reference Design </title>
<desc>AHL Camera Reference Design</desc>
<path class="st10" d="M0 601.29 L355.83 601.29 L355.83 413.83 L0 413.83 L0 601.29 Z"></path>
<text class="st11" v:langid="1033" x="93.54" y="436.63">AHL Camera Reference Design</text> </g>
<g id="group159-51" transform="translate(105.507,-18)" v:groupcontext="group" v:mid="159">
<title>Sheet.159</title>
<g id="group160-52" transform="translate(17.3391,-21.0625)" v:groupcontext="group" v:mid="160">
<title>Battery.230</title>
<g id="shape161-53" transform="translate(17.4682,-16.8943)" v:groupcontext="shape" v:mid="161">
<title>Sheet.161</title>
<path class="st12" d="M0.74 601.29 L4.43 601.29 C4.84 601.29 5.17 600.99 5.17 600.63 L5.17 599.37 C5.17 598.64 4.51 598.05          3.69 598.05 L1.48 598.05 C0.66 598.05 0 598.64 0 599.37 L0 600.64 C0 600.99 0.33 601.29 0.74 601.29          Z"></path>
</g>
<g id="shape162-55" transform="translate(4.32784,-16.8943)" v:groupcontext="shape" v:mid="162">
<title>Sheet.162</title>
<path class="st12" d="M0.74 601.29 L4.42 601.29 C4.83 601.29 5.17 600.99 5.17 600.63 L5.17 599.37 C5.17 598.64 4.5 598.05          3.68 598.05 L1.48 598.05 C0.66 598.05 0 598.64 0 599.37 L0 600.64 C0 600.99 0.33 601.29 0.74 601.29          Z"></path>
</g>
<g id="shape163-57" transform="translate(0,-13.9784)" v:groupcontext="shape" v:mid="163">
<title>Sheet.163</title>
<path class="st12" d="M25.67 598.99 L1.29 598.99 C0.58 598.99 0 599.51 0 600.14 C0 600.78 0.58 601.29 1.29 601.29 L25.67 601.29          C26.38 601.29 26.96 600.78 26.96 600.14 C26.96 599.51 26.38 598.99 25.67 598.99 Z"></path>
</g>
<g id="shape164-59" transform="translate(0.83419,-1.13687E-13)" v:groupcontext="shape" v:mid="164">
<title>Sheet.164</title>
<path class="st12" d="M23.46 588.07 L1.84 588.07 C0.82 588.07 0 588.8 0 589.71 L0 598.68 C0 600.12 1.31 601.29 2.93 601.29          L22.36 601.29 C23.98 601.29 25.29 600.12 25.29 598.68 L25.29 589.71 C25.29 588.8 24.47 588.07 23.46          588.07 Z"></path>
</g>
</g>
<g id="shape165-61" transform="translate(0,-1.05885)" v:groupcontext="shape" v:mid="165">
<title>12V Battery </title>
<desc>12V Battery</desc>
<rect class="st1" height="20.0036" width="61.6401" x="0" y="581.286"></rect>
<text class="st2" v:langid="1033" x="4.69" y="594.29">12V Battery</text> </g>
</g>
<g id="shape175-64" transform="translate(312,-266.677)" v:groupcontext="shape" v:mid="175">
<title>VOUT+ </title>
<desc>VOUT+</desc>
<rect class="st1" height="20.0036" width="56.4395" x="0" y="581.286"></rect>
<text class="st2" v:langid="1033" x="15.11" y="594.29">V<tspan class="st13" dy="-0.287em" v:basefontsize="10">OUT</tspan><tspan class="st9" dy="0.186em">+</tspan></text> </g>
<g id="shape176-69" transform="translate(312.058,-227.289)" v:groupcontext="shape" v:mid="176">
<title>VOUT- </title>
<desc>VOUT-</desc>
<rect class="st1" height="20.0036" width="56.4395" x="0" y="581.286"></rect>
<text class="st2" v:langid="1033" x="16.36" y="594.29">V<tspan class="st13" dy="-0.287em" v:basefontsize="10">OUT</tspan><tspan class="st9" dy="0.186em">-</tspan></text> </g>
<g id="shape178-74" transform="translate(820.732,445.811) rotate(90)" v:groupcontext="shape" v:mid="178">
<title>Sheet.178</title>
<path class="st14" d="M6.68 601.29 L7.04 601.29 L107.69 601.29"></path>
</g>
<a data-link-id="#pmic-1" xlink:href="#pmic-1">
<g id="shape179-80" transform="translate(112.625,-155.478)" v:groupcontext="shape" v:mid="179">
<title>PMIC 1</title>
<desc>PMIC</desc>
<rect class="st15" height="33.75" width="200" x="0" y="567.539"></rect>
<text class="st16" v:langid="1033" x="86.25" y="587.71">PMIC</text> </g>
</a>
<a data-link-id="#ahl-tx" xlink:href="#ahl-tx">
<g id="shape180-83" transform="translate(219.827,-218.784)" v:groupcontext="shape" v:mid="180">
<title>AHL Tx</title>
<desc>AHL Tx</desc>
<rect class="st15" height="61.875" width="92.2306" x="0" y="539.414"></rect>
<text class="st16" v:langid="1033" x="27.78" y="573.65">AHL Tx</text> </g>
</a>
<g id="shape181-86" transform="translate(439.472,-67.2895)" v:groupcontext="shape" v:mid="181">
<title>AHL Rx Evaluation Board</title>
<desc>AHL Rx Evaluation Board</desc>
<path class="st10" d="M0 601.29 L233.83 601.29 L233.83 349.35 L0 349.35 L0 601.29 Z"></path>
<text class="st11" v:langid="1033" x="48.88" y="372.15">AHL Rx Evaluation Board</text> </g>
<g id="shape182-89" transform="translate(445.458,-266.677)" v:groupcontext="shape" v:mid="182">
<title>VIN+ </title>
<desc>VIN+</desc>
<rect class="st1" height="20.0036" width="43.0836" x="0" y="581.286"></rect>
<text class="st2" v:langid="1033" x="12.04" y="594.29">V<tspan class="st13" dy="-0.287em" v:basefontsize="10">IN</tspan><tspan class="st9" dy="0.186em">+</tspan></text> </g>
<g id="shape183-94" transform="translate(446.458,-227.289)" v:groupcontext="shape" v:mid="183">
<title>VIN- </title>
<desc>VIN-</desc>
<rect class="st1" height="20.0036" width="43.0836" x="0" y="581.286"></rect>
<text class="st2" v:langid="1033" x="13.29" y="594.29">V<tspan class="st13" dy="-0.287em" v:basefontsize="10">IN</tspan><tspan class="st9" dy="0.186em">-</tspan></text> </g>
<g id="shape184-99" transform="translate(1213.86,382.505) rotate(90)" v:groupcontext="shape" v:mid="184">
<title>Sheet.184</title>
<path class="st17" d="M6.68 601.29 L7.04 601.29 L54.45 601.29"></path>
</g>
<a data-link-id="#mcu" xlink:href="#mcu">
<g id="shape185-106" transform="translate(561.946,-78.0759)" v:groupcontext="shape" v:mid="185">
<title>MCU</title>
<desc>MCU</desc>
<rect class="st15" height="79.2136" width="101.25" x="0" y="522.076"></rect>
<text class="st16" v:langid="1033" x="38.1" y="564.98">MCU</text> </g>
</a>
<a data-link-id="#buck-controller" xlink:href="#buck-controller">
<g id="shape186-109" transform="translate(449.581,-97.6995)" v:groupcontext="shape" v:mid="186">
<title>Buck Controller</title>
<desc>Buck Controller</desc>
<rect class="st15" height="33.75" width="93.6153" x="0" y="567.539"></rect>
<text class="st16" v:langid="1033" x="9.21" y="587.71">Buck Controller</text> </g>
</a>
<g id="shape187-112" transform="translate(722.877,-409.594)" v:groupcontext="shape" v:mid="187">
<title>Evaluation Board</title>
<desc>Evaluation Board</desc>
<path class="st10" d="M0 601.29 L323.83 601.29 L323.83 428.59 L0 428.59 L0 601.29 Z"></path>
<text class="st11" v:langid="1033" x="116.22" y="451.39">Evaluation Board</text> </g>
<a data-link-id="#pmic-2" xlink:href="#pmic-2">
<g id="shape191-115" transform="translate(747.114,-420.105)" v:groupcontext="shape" v:mid="191">
<title>PMIC 2</title>
<desc>PMIC</desc>
<rect class="st15" height="40.7969" width="61.8858" x="0" y="560.493"></rect>
<text class="st16" v:langid="1033" x="17.19" y="584.19">PMIC</text> </g>
</a>
<a data-link-id="#display-processor" xlink:href="#display-processor">
<g id="shape192-118" transform="translate(850.093,-420.105)" v:groupcontext="shape" v:mid="192">
<title>Display Processor</title>
<desc>Display Processor</desc>
<rect class="st15" height="40.7969" width="69.4" x="0" y="560.493"></rect>
<text class="st16" v:langid="1033" x="16.67" y="577.59">Display<tspan class="st9" dy="1.2em" x="9.94">Processor</tspan></text> </g>
</a>
<a data-link-id="#led" xlink:href="#led">
<g id="shape193-122" transform="translate(959,-420.105)" v:groupcontext="shape" v:mid="193">
<title>LED Backlight Driver</title>
<desc>LED Backlight Driver</desc>
<rect class="st15" height="40.7969" width="61.8858" x="0" y="560.493"></rect>
<text class="st16" v:langid="1033" x="20.24" y="570.99">LED <tspan class="st9" dy="1.2em" x="8.63">Backlight</tspan><tspan class="st9" dy="1.2em" x="16.28">Driver</tspan></text> </g>
</a>
<a data-link-id="#soc" xlink:href="#soc">
<g id="shape196-127" transform="translate(737.473,-199.368)" v:groupcontext="shape" v:mid="196">
<title>SoC R-Car V3H</title>
<desc>SoC R-Car V3H</desc>
<rect class="st15" height="100.709" width="101.25" x="0" y="500.581"></rect>
<text class="st16" v:langid="1033" x="11.5" y="554.24">SoC R-Car V3H</text> </g>
</a>
<g id="shape197-130" transform="translate(737.473,-114.539)" v:groupcontext="shape" v:mid="197">
<title>PMIC 3</title>
<desc>PMIC</desc>
<rect class="st7" height="33.75" width="101.25" x="0" y="567.539"></rect>
<text class="st8" v:langid="1033" x="36.88" y="587.71">PMIC</text> </g>
<g id="shape198-133" transform="translate(891.52,952.857) rotate(180)" v:groupcontext="shape" v:mid="198">
<title>Sheet.198</title>
<path class="st3" d="M0 601.29 L45.76 601.29"></path>
</g>
<g id="shape199-138" transform="translate(788.098,-300.076)" v:groupcontext="shape" v:layermember="3" v:mid="199">
<title>Dynamic connector</title>
<path class="st6" d="M0 601.29 L0 545.3 L96.7 545.3"></path>
</g>
<g id="shape200-141" transform="translate(368.497,-217.365)" v:groupcontext="shape" v:mid="200">
<title>Sheet.200</title>
<rect class="st18" height="61.875" width="12.6599" x="0" y="539.414"></rect>
</g>
<g id="shape201-143" transform="translate(446.167,-266.289)" v:groupcontext="shape" v:mid="201">
<title>Sheet.201</title>
<path class="st6" d="M0 601.29 L116.13 601.29"></path>
</g>
<g id="shape202-146" transform="translate(445.921,-227.289)" v:groupcontext="shape" v:mid="202">
<title>Sheet.202</title>
<path class="st6" d="M0 601.29 L116.03 601.29"></path>
</g>
<g id="shape203-149" transform="translate(433.261,-217.365)" v:groupcontext="shape" v:mid="203">
<title>Sheet.203</title>
<rect class="st18" height="61.875" width="12.6599" x="0" y="539.414"></rect>
</g>
<g id="shape204-151" transform="translate(216.67,-45.2895)" v:groupcontext="shape" v:mid="204">
<title>Connector 1</title>
<ellipse class="st19" cx="2.77275" cy="598.517" rx="2.77275" ry="2.77275"></ellipse>
</g>
<a data-link-id="#ahl-rx" xlink:href="#ahl-rx">
<g id="shape209-153" transform="translate(561.946,-218.784)" v:groupcontext="shape" v:mid="209">
<title>AHL Rx</title>
<desc>AHL Rx</desc>
<rect class="st15" height="61.875" width="101.25" x="0" y="539.414"></rect>
<text class="st16" v:langid="1033" x="31.68" y="573.65">AHL Rx</text> </g>
</a>
<g id="shape212-156" transform="translate(543.196,-114.574)" v:groupcontext="shape" v:mid="212">
<title>Sheet.212</title>
<path class="st3" d="M0 601.29 L11.71 601.29"></path>
</g>
<g id="shape216-161" transform="translate(174.13,-247.5)" v:groupcontext="shape" v:layermember="3" v:mid="216">
<title>Connector Arrow.216</title>
<path class="st3" d="M0 588.79 L38.66 588.79"></path>
</g>
<g id="shape219-166" transform="translate(129.797,-189.519)" v:groupcontext="shape" v:layermember="3" v:mid="219">
<title>Connector Arrow.219</title>
<path class="st3" d="M12.5 601.29 L12.5 572.03"></path>
</g>
<g id="shape220-171" transform="translate(253.442,-189.326)" v:groupcontext="shape" v:layermember="3" v:mid="220">
<title>Connector Arrow.220</title>
<path class="st3" d="M12.5 601.29 L12.5 578.98"></path>
</g>
<g id="shape236-176" transform="translate(809,-440.898)" v:groupcontext="shape" v:mid="236">
<title>3.3V </title>
<desc>3.3V</desc>
<rect class="st1" height="20.0036" width="41" x="0" y="581.286"></rect>
<text class="st2" v:langid="1033" x="10.21" y="594.29">3.3V</text> </g>
<g id="group237-179" transform="translate(830.587,-487.309)" v:groupcontext="group" v:mid="237">
<title>Sheet.237</title>
<g id="shape188-180" transform="translate(601.289,548.309) rotate(90)" v:groupcontext="shape" v:mid="188">
<title>Double arrow.2150</title>
<path class="st20" d="M10.68 601.29 L11.04 601.29 L34.33 601.29"></path>
</g>
<g id="shape189-189" transform="translate(108.413,1202.58) rotate(180)" v:groupcontext="shape" v:mid="189">
<title>Double arrow.2166</title>
<path class="st20" d="M10.68 601.29 L11.04 601.29 L89.1 601.29"></path>
</g>
<g id="shape190-196" transform="translate(7.99737,-8.41032)" v:groupcontext="shape" v:mid="190">
<title>Main Display (Surround View)</title>
<desc>Main Display (Surround View)</desc>
<rect class="st7" height="43.586" width="100.405" x="0" y="557.703"></rect>
<text class="st2" v:langid="1033" x="21.58" y="575.4">Main Display<tspan class="st9" dy="1.39em" x="14.08">(Surround View)</tspan></text> </g>
</g>
<g id="shape238-200" transform="translate(809.364,-428.003)" v:groupcontext="shape" v:layermember="3" v:mid="238">
<title>Connector Arrow.238</title>
<path class="st3" d="M0 588.79 L33.69 588.79"></path>
</g>
<g id="shape239-205" transform="translate(919.493,-428.003)" v:groupcontext="shape" v:layermember="3" v:mid="239">
<title>Connector Arrow.239</title>
<path class="st14" d="M6.68 588.79 L7.04 588.79 L38.87 588.79"></path>
</g>
<g id="shape240-210" transform="translate(775.598,-148.289)" v:groupcontext="shape" v:layermember="3" v:mid="240">
<title>Connector Arrow.240</title>
<path class="st3" d="M12.5 601.29 L12.5 557.25"></path>
</g>
<g id="shape242-215" transform="translate(768.098,-202.734)" v:groupcontext="shape" v:mid="242">
<title>VDD</title>
<desc>VDD</desc>
<rect class="st22" height="22.648" width="40" x="0" y="578.641"></rect>
<text class="st23" v:langid="1033" x="9.44" y="592.97">VDD</text> </g>
<g id="shape245-218" transform="translate(775.598,-65.2895)" v:groupcontext="shape" v:layermember="3" v:mid="245">
<title>Connector Arrow.245</title>
<path class="st3" d="M12.5 601.29 L12.5 559.08"></path>
</g>
<g id="shape246-223" transform="translate(1100.28,500.866) rotate(89.7404)" v:groupcontext="shape" v:mid="246">
<title>Sheet.246</title>
<path class="st14" d="M6.68 601.29 L7.04 601.29 L50.16 601.29"></path>
</g>
<g id="shape247-228" transform="translate(496.455,-45.5167)" v:groupcontext="shape" v:mid="247">
<title>Connector 1.247</title>
<ellipse class="st19" cx="2.77275" cy="598.517" rx="2.77275" ry="2.77275"></ellipse>
</g>
<a data-link-id="#clock-generator" xlink:href="#clock-generator">
<g id="shape195-230" transform="translate(891.52,-218.784)" v:groupcontext="shape" v:mid="195">
<title>Clock Generator</title>
<desc>Clock Generator</desc>
<rect class="st15" height="61.875" width="61.6401" x="0" y="539.414"></rect>
<text class="st16" v:langid="1033" x="17.07" y="567.05">Clock <tspan class="st9" dy="1.2em" x="6.06">Generator</tspan></text> </g>
</a>
<g id="shape244-234" transform="translate(737.473,-31.5395)" v:groupcontext="shape" v:mid="244">
<title>DC/DC</title>
<desc>DC/DC</desc>
<rect class="st7" height="33.75" width="101.25" x="0" y="567.539"></rect>
<text class="st8" v:langid="1033" x="33.21" y="587.71">DC/DC</text> </g>
<g id="shape248-237" transform="translate(174.13,-226.5)" v:groupcontext="shape" v:layermember="3" v:mid="248">
<title>Connector Arrow.248</title>
<path class="st17" d="M6.68 588.79 L7.04 588.79 L38.66 588.79"></path>
</g>
</g>
</svg>